# xmcd
#
# Track frame offsets:
#	150
#	19787
#	24765
#	50344
#	54429
#	64893
#	68727
#	90893
#	95499
#	110955
#	111867
#	113721
#
# Disc length: 1803 seconds
#
# Revision: 1
# Processed by: cddbd v1.5.2PL0 Copyright (c) Steve Scherf et al.
# Submitted via: audiograbber 1.83.01
#
DISCID=9507090c
DTITLE=Morbid Enema - Opus Locus
DYEAR=2004
DGENRE=Death Grind
TTITLE0=Opus Locus
TTITLE1=Sechfilz
TTITLE2=Fecal o Phobia
TTITLE3=Holzkasper
TTITLE4=Terrible Assbleeding
TTITLE5=Vier Scheiben Wacholderschinken
TTITLE6=Pussylicker
TTITLE7=Fisch macht einsam
TTITLE8=Just A Bitch
TTITLE9=Scheiﬂe Fressen
TTITLE10=Der Scheiﬂ Sack
TTITLE11=Porn and Roll
EXTD=
EXTT0=
EXTT1=
EXTT2=
EXTT3=
EXTT4=
EXTT5=
EXTT6=
EXTT7=
EXTT8=
EXTT9=
EXTT10=
EXTT11=
PLAYORDER=
